<svg width="150" height="90" viewBox="0 0 150 90" fill="none" xmlns="http://www.w3.org/2000/svg">
<ellipse cx="50.8357" cy="44.9668" rx="48.8357" ry="43.8208" fill="#FDE7D0"/>
<mask id="mask0_44_22" style="mask-type:alpha" maskUnits="userSpaceOnUse" x="2" y="1" width="98" height="88">
<ellipse cx="50.8357" cy="44.9668" rx="48.8357" ry="43.8208" fill="#FDE7D0"/>
</mask>
<g mask="url(#mask0_44_22)">
<path d="M46.9721 23.01C38.536 18.1394 34.8862 23.1254 28.9011 23.343C17.5051 9.98005 -0.88851 34.4757 -4.70203 53.5624C-9.67973 56.9521 -15.6731 62.1199 -22.6104 69.6917C-16.8529 79.0313 -8.36526 85.5002 3.36177 86.6303C5.6536 80.5538 7.12517 75.2931 8.23168 70.7293C12.9871 70.9968 18.239 73.6478 19.7362 80.1981C22.2035 76.0062 20.4166 72.5553 17.3616 70.5377L18.1395 61.7039C28.2368 58.6936 37.5956 53.2815 40.0036 43.512C41.7542 36.9787 53.8547 39.3003 62.573 45.9966C60.7625 40.7989 56.9238 36.7544 52.8189 33.7186C53.3666 29.7649 51.1949 25.448 46.9721 23.01ZM46.7225 27.1697C48.1657 28.0029 48.6643 29.8494 47.8312 31.2924C46.9981 32.7355 45.1499 33.2269 43.7066 32.3936C42.2635 31.5604 41.7695 29.7168 42.6027 28.2737C43.4358 26.8307 45.2796 26.3367 46.7225 27.1697ZM14.8747 62.5903L14.302 69.1145C12.3629 68.5244 10.3188 68.427 8.65605 68.9326C9.09168 67.0573 9.47573 65.3047 9.83504 63.6724C11.5254 63.3628 13.2061 63.0018 14.8747 62.5903Z" fill="#1E1E1E"/>
</g>
<mask id="path-4-outside-1_44_22" maskUnits="userSpaceOnUse" x="23.0059" y="50.4336" width="73" height="34" fill="black">
<rect fill="white" x="23.0059" y="50.4336" width="73" height="34"/>
<path d="M29.0901 58.7422V61.7422C29.0901 62.3217 29.1898 62.7267 29.3891 62.9572C29.5885 63.1815 29.9966 63.2936 30.6135 63.2936H30.8378V64.331H24.0059V63.2936H24.2582C24.8937 63.2936 25.305 63.1784 25.4919 62.9478C25.685 62.7111 25.7816 62.3092 25.7816 61.7422V54.2467C25.7816 53.6673 25.6819 53.2654 25.4825 53.0411C25.2831 52.8106 24.875 52.6953 24.2582 52.6953H24.0059V51.6579L29.0901 51.6486L30.2303 51.6392C31.358 51.6392 32.1805 51.6766 32.6976 51.7514C33.221 51.8261 33.735 52.0068 34.2397 52.2934C34.7444 52.5738 35.14 52.9601 35.4266 53.4523C35.7195 53.9445 35.8659 54.4742 35.8659 55.0411C35.8659 56.549 35.0123 57.5801 33.3051 58.1347C33.7599 58.4213 34.4671 59.3185 35.4266 60.8263C36.1743 61.9914 36.707 62.6955 37.0248 62.9385C37.3426 63.1753 37.6915 63.2936 38.0716 63.2936V64.331H34.1089C33.7475 63.9011 33.0777 62.8108 32.0995 61.06C31.6073 60.1752 31.2615 59.6051 31.0621 59.3496C30.8627 59.0942 30.6571 58.9322 30.4452 58.8636C30.2396 58.7889 29.7879 58.7484 29.0901 58.7422ZM29.0901 57.6019C30.1431 57.6144 30.8533 57.5521 31.221 57.415C31.5886 57.2717 31.8783 57.0194 32.0901 56.658C32.302 56.2904 32.4079 55.7951 32.4079 55.172C32.4079 54.281 32.1961 53.6642 31.7724 53.3215C31.3549 52.9788 30.6322 52.8075 29.6041 52.8075C29.4733 52.8075 29.3019 52.8106 29.0901 52.8168V57.6019Z"/>
<path d="M41.9258 60.9104L41.6828 61.5366C41.5084 61.979 41.4212 62.2905 41.4212 62.4712C41.4212 62.7765 41.524 62.9915 41.7296 63.1161C41.9352 63.2345 42.2716 63.2936 42.7389 63.2936V64.331H38.5519V63.2936C39.3495 63.2936 40.0193 62.6145 40.5613 61.2562L44.4586 51.4336H45.5521L49.5241 61.2469C49.9167 62.2189 50.2718 62.8045 50.5896 63.0039C50.9073 63.1971 51.2126 63.2936 51.5055 63.2936V64.331H45.2156V63.2936C45.7826 63.2936 46.1347 63.2407 46.2717 63.1348C46.4088 63.0226 46.4773 62.8824 46.4773 62.7142C46.4773 62.5647 46.4213 62.3684 46.3091 62.1254L46.1876 61.8357L45.8231 60.9104H41.9258ZM42.3277 59.8356H45.4025L43.8231 56.0505L42.3277 59.8356Z"/>
<path d="M56.9673 64.5927L52.6401 54.8729C52.2912 54.0879 52.0513 53.5863 51.9204 53.3682C51.7896 53.1439 51.6151 52.9757 51.3971 52.8635C51.179 52.7514 50.8301 52.6953 50.3503 52.6953V51.6579H57.0888V52.6953C56.1479 52.6953 55.6775 52.9258 55.6775 53.3869C55.6775 53.6424 55.8115 54.0629 56.0794 54.6486L58.6776 60.3964L61.1169 54.6393C61.2976 54.2156 61.3879 53.8573 61.3879 53.5645C61.3879 52.985 60.9175 52.6953 59.9767 52.6953V51.6579H64.4347V52.6953C63.9176 52.6953 63.5219 52.8324 63.2478 53.1065C62.9798 53.3807 62.553 54.2094 61.9674 55.5926L58.1168 64.5927H56.9673Z"/>
<path d="M70.6722 58.2749V61.4058C70.6722 62.0039 70.7065 62.3964 70.775 62.5833C70.8436 62.764 71.0274 62.9167 71.3264 63.0413C71.6255 63.1597 72.0803 63.2189 72.6909 63.2189C73.5196 63.2189 74.1271 63.1161 74.5134 62.9105C74.9059 62.7048 75.2549 62.3435 75.5602 61.8263C75.8717 61.3092 76.096 60.7578 76.2331 60.1721H77.2798L77.1957 64.331H65.6067V63.2936H65.8403C66.4696 63.2936 66.8777 63.1784 67.0647 62.9478C67.2578 62.7111 67.3544 62.3092 67.3544 61.7422V54.228C67.3544 53.6486 67.2547 53.2467 67.0553 53.0224C66.8622 52.7919 66.4572 52.6766 65.8403 52.6766H65.6067V51.6579H76.4013L76.5882 54.9383H75.5415C75.3545 54.3651 75.1458 53.9103 74.9153 53.5738C74.6848 53.2311 74.4511 53.0131 74.2143 52.9196C73.9838 52.8199 73.5913 52.7701 73.0367 52.7701H70.6722V57.144H71.8498C72.4106 57.144 72.7813 57.0381 72.962 56.8262C73.1489 56.6144 73.2548 56.1969 73.2797 55.5739H74.3358V59.873H73.2797C73.286 59.792 73.2891 59.7328 73.2891 59.6954C73.2891 59.3341 73.2112 59.007 73.0554 58.7141C72.9059 58.4213 72.5165 58.2749 71.8872 58.2749H70.6722Z"/>
<path d="M82.3491 55.2654V61.088C82.3491 62.0226 82.5173 62.6238 82.8538 62.8918C83.1965 63.1597 83.6326 63.2936 84.1622 63.2936V64.331H79.4051V63.2936C79.8101 63.2936 80.1621 63.1971 80.4612 63.0039C80.7603 62.8045 80.9503 62.5771 81.0313 62.3217C81.1123 62.06 81.1528 61.6519 81.1528 61.0973V54.6299C81.1528 53.3402 80.5484 52.6953 79.3397 52.6953V51.6579H83.6201L90.5642 59.4151V54.7701C90.5642 53.3869 89.9816 52.6953 88.8165 52.6953V51.6579H93.368V52.6953C93.0502 52.6953 92.7512 52.7825 92.4708 52.957C92.1966 53.1314 92.0097 53.3558 91.91 53.6299C91.8103 53.8978 91.7605 54.2903 91.7605 54.8075V64.5367H90.5642L82.3491 55.2654Z"/>
<path d="M55.1541 71.0702V70.0328H61.8552V71.0702H61.659C61.0297 71.0702 60.6184 71.1886 60.4253 71.4254C60.2384 71.6559 60.1449 72.0547 60.1449 72.6217V80.1172C60.1449 80.6966 60.2415 81.1016 60.4346 81.3321C60.634 81.5564 61.0421 81.6686 61.659 81.6686H61.8552V82.706H55.1541V81.6686C55.8271 81.6686 56.2725 81.5658 56.4906 81.3602C56.7149 81.1546 56.8271 80.7402 56.8271 80.1172V72.6217C56.8271 72.0173 56.7212 71.6092 56.5093 71.3974C56.3037 71.1793 55.852 71.0702 55.1541 71.0702Z"/>
<path d="M66.831 73.6404V79.4629C66.831 80.3975 66.9992 80.9988 67.3357 81.2667C67.6784 81.5346 68.1145 81.6686 68.6441 81.6686V82.706H63.887V81.6686C64.292 81.6686 64.6441 81.572 64.9431 81.3789C65.2422 81.1795 65.4322 80.9521 65.5132 80.6966C65.5942 80.4349 65.6347 80.0268 65.6347 79.4723V73.0049C65.6347 71.7151 65.0304 71.0702 63.8216 71.0702V70.0328H68.1021L75.0461 77.79V73.1451C75.0461 71.7619 74.4636 71.0702 73.2984 71.0702V70.0328H77.8499V71.0702C77.5322 71.0702 77.2331 71.1575 76.9527 71.3319C76.6786 71.5064 76.4916 71.7307 76.392 72.0048C76.2923 72.2728 76.2424 72.6653 76.2424 73.1824V82.9116H75.0461L66.831 73.6404Z"/>
<path d="M84.723 77.6965V80.1172C84.723 80.7028 84.8195 81.1078 85.0127 81.3321C85.2121 81.5564 85.6389 81.6686 86.2931 81.6686V82.706H79.6855V81.6686H79.8817C80.5173 81.6686 80.9285 81.5533 81.1154 81.3228C81.3086 81.086 81.4051 80.6841 81.4051 80.1172V72.6217C81.4051 72.0422 81.3054 71.6404 81.1061 71.416C80.9129 71.1855 80.5048 71.0702 79.8817 71.0702H79.6855V70.0328H86.4426V71.0702H86.237C85.6077 71.0702 85.1965 71.1886 85.0033 71.4254C84.8164 71.6559 84.723 72.0547 84.723 72.6217V76.1545L88.1529 72.9955C88.7511 72.4472 89.0501 71.9986 89.0501 71.6497C89.0501 71.2634 88.6732 71.0702 87.9193 71.0702V70.0328H93.5269V71.0702C93.016 71.0702 92.4801 71.2011 91.9194 71.4628C91.3586 71.7245 90.5642 72.332 89.5361 73.2852L88.3866 74.3507L91.8726 79.5284C92.4583 80.4007 92.9412 80.977 93.3213 81.2574C93.7076 81.5315 94.2216 81.6686 94.8633 81.6686V82.706H87.5828V81.6686C88.5299 81.6686 89.0034 81.4786 89.0034 81.0985C89.0034 80.9365 88.8103 80.5751 88.424 80.0144L86.0127 76.5003L84.723 77.6965Z"/>
</mask>
<path d="M29.0901 58.7422V61.7422C29.0901 62.3217 29.1898 62.7267 29.3891 62.9572C29.5885 63.1815 29.9966 63.2936 30.6135 63.2936H30.8378V64.331H24.0059V63.2936H24.2582C24.8937 63.2936 25.305 63.1784 25.4919 62.9478C25.685 62.7111 25.7816 62.3092 25.7816 61.7422V54.2467C25.7816 53.6673 25.6819 53.2654 25.4825 53.0411C25.2831 52.8106 24.875 52.6953 24.2582 52.6953H24.0059V51.6579L29.0901 51.6486L30.2303 51.6392C31.358 51.6392 32.1805 51.6766 32.6976 51.7514C33.221 51.8261 33.735 52.0068 34.2397 52.2934C34.7444 52.5738 35.14 52.9601 35.4266 53.4523C35.7195 53.9445 35.8659 54.4742 35.8659 55.0411C35.8659 56.549 35.0123 57.5801 33.3051 58.1347C33.7599 58.4213 34.4671 59.3185 35.4266 60.8263C36.1743 61.9914 36.707 62.6955 37.0248 62.9385C37.3426 63.1753 37.6915 63.2936 38.0716 63.2936V64.331H34.1089C33.7475 63.9011 33.0777 62.8108 32.0995 61.06C31.6073 60.1752 31.2615 59.6051 31.0621 59.3496C30.8627 59.0942 30.6571 58.9322 30.4452 58.8636C30.2396 58.7889 29.7879 58.7484 29.0901 58.7422ZM29.0901 57.6019C30.1431 57.6144 30.8533 57.5521 31.221 57.415C31.5886 57.2717 31.8783 57.0194 32.0901 56.658C32.302 56.2904 32.4079 55.7951 32.4079 55.172C32.4079 54.281 32.1961 53.6642 31.7724 53.3215C31.3549 52.9788 30.6322 52.8075 29.6041 52.8075C29.4733 52.8075 29.3019 52.8106 29.0901 52.8168V57.6019Z" fill="#1E1E1E"/>
<path d="M41.9258 60.9104L41.6828 61.5366C41.5084 61.979 41.4212 62.2905 41.4212 62.4712C41.4212 62.7765 41.524 62.9915 41.7296 63.1161C41.9352 63.2345 42.2716 63.2936 42.7389 63.2936V64.331H38.5519V63.2936C39.3495 63.2936 40.0193 62.6145 40.5613 61.2562L44.4586 51.4336H45.5521L49.5241 61.2469C49.9167 62.2189 50.2718 62.8045 50.5896 63.0039C50.9073 63.1971 51.2126 63.2936 51.5055 63.2936V64.331H45.2156V63.2936C45.7826 63.2936 46.1347 63.2407 46.2717 63.1348C46.4088 63.0226 46.4773 62.8824 46.4773 62.7142C46.4773 62.5647 46.4213 62.3684 46.3091 62.1254L46.1876 61.8357L45.8231 60.9104H41.9258ZM42.3277 59.8356H45.4025L43.8231 56.0505L42.3277 59.8356Z" fill="#1E1E1E"/>
<path d="M56.9673 64.5927L52.6401 54.8729C52.2912 54.0879 52.0513 53.5863 51.9204 53.3682C51.7896 53.1439 51.6151 52.9757 51.3971 52.8635C51.179 52.7514 50.8301 52.6953 50.3503 52.6953V51.6579H57.0888V52.6953C56.1479 52.6953 55.6775 52.9258 55.6775 53.3869C55.6775 53.6424 55.8115 54.0629 56.0794 54.6486L58.6776 60.3964L61.1169 54.6393C61.2976 54.2156 61.3879 53.8573 61.3879 53.5645C61.3879 52.985 60.9175 52.6953 59.9767 52.6953V51.6579H64.4347V52.6953C63.9176 52.6953 63.5219 52.8324 63.2478 53.1065C62.9798 53.3807 62.553 54.2094 61.9674 55.5926L58.1168 64.5927H56.9673Z" fill="#1E1E1E"/>
<path d="M70.6722 58.2749V61.4058C70.6722 62.0039 70.7065 62.3964 70.775 62.5833C70.8436 62.764 71.0274 62.9167 71.3264 63.0413C71.6255 63.1597 72.0803 63.2189 72.6909 63.2189C73.5196 63.2189 74.1271 63.1161 74.5134 62.9105C74.9059 62.7048 75.2549 62.3435 75.5602 61.8263C75.8717 61.3092 76.096 60.7578 76.2331 60.1721H77.2798L77.1957 64.331H65.6067V63.2936H65.8403C66.4696 63.2936 66.8777 63.1784 67.0647 62.9478C67.2578 62.7111 67.3544 62.3092 67.3544 61.7422V54.228C67.3544 53.6486 67.2547 53.2467 67.0553 53.0224C66.8622 52.7919 66.4572 52.6766 65.8403 52.6766H65.6067V51.6579H76.4013L76.5882 54.9383H75.5415C75.3545 54.3651 75.1458 53.9103 74.9153 53.5738C74.6848 53.2311 74.4511 53.0131 74.2143 52.9196C73.9838 52.8199 73.5913 52.7701 73.0367 52.7701H70.6722V57.144H71.8498C72.4106 57.144 72.7813 57.0381 72.962 56.8262C73.1489 56.6144 73.2548 56.1969 73.2797 55.5739H74.3358V59.873H73.2797C73.286 59.792 73.2891 59.7328 73.2891 59.6954C73.2891 59.3341 73.2112 59.007 73.0554 58.7141C72.9059 58.4213 72.5165 58.2749 71.8872 58.2749H70.6722Z" fill="#1E1E1E"/>
<path d="M82.3491 55.2654V61.088C82.3491 62.0226 82.5173 62.6238 82.8538 62.8918C83.1965 63.1597 83.6326 63.2936 84.1622 63.2936V64.331H79.4051V63.2936C79.8101 63.2936 80.1621 63.1971 80.4612 63.0039C80.7603 62.8045 80.9503 62.5771 81.0313 62.3217C81.1123 62.06 81.1528 61.6519 81.1528 61.0973V54.6299C81.1528 53.3402 80.5484 52.6953 79.3397 52.6953V51.6579H83.6201L90.5642 59.4151V54.7701C90.5642 53.3869 89.9816 52.6953 88.8165 52.6953V51.6579H93.368V52.6953C93.0502 52.6953 92.7512 52.7825 92.4708 52.957C92.1966 53.1314 92.0097 53.3558 91.91 53.6299C91.8103 53.8978 91.7605 54.2903 91.7605 54.8075V64.5367H90.5642L82.3491 55.2654Z" fill="#1E1E1E"/>
<path d="M55.1541 71.0702V70.0328H61.8552V71.0702H61.659C61.0297 71.0702 60.6184 71.1886 60.4253 71.4254C60.2384 71.6559 60.1449 72.0547 60.1449 72.6217V80.1172C60.1449 80.6966 60.2415 81.1016 60.4346 81.3321C60.634 81.5564 61.0421 81.6686 61.659 81.6686H61.8552V82.706H55.1541V81.6686C55.8271 81.6686 56.2725 81.5658 56.4906 81.3602C56.7149 81.1546 56.8271 80.7402 56.8271 80.1172V72.6217C56.8271 72.0173 56.7212 71.6092 56.5093 71.3974C56.3037 71.1793 55.852 71.0702 55.1541 71.0702Z" fill="#1E1E1E"/>
<path d="M66.831 73.6404V79.4629C66.831 80.3975 66.9992 80.9988 67.3357 81.2667C67.6784 81.5346 68.1145 81.6686 68.6441 81.6686V82.706H63.887V81.6686C64.292 81.6686 64.6441 81.572 64.9431 81.3789C65.2422 81.1795 65.4322 80.9521 65.5132 80.6966C65.5942 80.4349 65.6347 80.0268 65.6347 79.4723V73.0049C65.6347 71.7151 65.0304 71.0702 63.8216 71.0702V70.0328H68.1021L75.0461 77.79V73.1451C75.0461 71.7619 74.4636 71.0702 73.2984 71.0702V70.0328H77.8499V71.0702C77.5322 71.0702 77.2331 71.1575 76.9527 71.3319C76.6786 71.5064 76.4916 71.7307 76.392 72.0048C76.2923 72.2728 76.2424 72.6653 76.2424 73.1824V82.9116H75.0461L66.831 73.6404Z" fill="#1E1E1E"/>
<path d="M84.723 77.6965V80.1172C84.723 80.7028 84.8195 81.1078 85.0127 81.3321C85.2121 81.5564 85.6389 81.6686 86.2931 81.6686V82.706H79.6855V81.6686H79.8817C80.5173 81.6686 80.9285 81.5533 81.1154 81.3228C81.3086 81.086 81.4051 80.6841 81.4051 80.1172V72.6217C81.4051 72.0422 81.3054 71.6404 81.1061 71.416C80.9129 71.1855 80.5048 71.0702 79.8817 71.0702H79.6855V70.0328H86.4426V71.0702H86.237C85.6077 71.0702 85.1965 71.1886 85.0033 71.4254C84.8164 71.6559 84.723 72.0547 84.723 72.6217V76.1545L88.1529 72.9955C88.7511 72.4472 89.0501 71.9986 89.0501 71.6497C89.0501 71.2634 88.6732 71.0702 87.9193 71.0702V70.0328H93.5269V71.0702C93.016 71.0702 92.4801 71.2011 91.9194 71.4628C91.3586 71.7245 90.5642 72.332 89.5361 73.2852L88.3866 74.3507L91.8726 79.5284C92.4583 80.4007 92.9412 80.977 93.3213 81.2574C93.7076 81.5315 94.2216 81.6686 94.8633 81.6686V82.706H87.5828V81.6686C88.5299 81.6686 89.0034 81.4786 89.0034 81.0985C89.0034 80.9365 88.8103 80.5751 88.424 80.0144L86.0127 76.5003L84.723 77.6965Z" fill="#1E1E1E"/>
<path d="M29.0901 58.7422V61.7422C29.0901 62.3217 29.1898 62.7267 29.3891 62.9572C29.5885 63.1815 29.9966 63.2936 30.6135 63.2936H30.8378V64.331H24.0059V63.2936H24.2582C24.8937 63.2936 25.305 63.1784 25.4919 62.9478C25.685 62.7111 25.7816 62.3092 25.7816 61.7422V54.2467C25.7816 53.6673 25.6819 53.2654 25.4825 53.0411C25.2831 52.8106 24.875 52.6953 24.2582 52.6953H24.0059V51.6579L29.0901 51.6486L30.2303 51.6392C31.358 51.6392 32.1805 51.6766 32.6976 51.7514C33.221 51.8261 33.735 52.0068 34.2397 52.2934C34.7444 52.5738 35.14 52.9601 35.4266 53.4523C35.7195 53.9445 35.8659 54.4742 35.8659 55.0411C35.8659 56.549 35.0123 57.5801 33.3051 58.1347C33.7599 58.4213 34.4671 59.3185 35.4266 60.8263C36.1743 61.9914 36.707 62.6955 37.0248 62.9385C37.3426 63.1753 37.6915 63.2936 38.0716 63.2936V64.331H34.1089C33.7475 63.9011 33.0777 62.8108 32.0995 61.06C31.6073 60.1752 31.2615 59.6051 31.0621 59.3496C30.8627 59.0942 30.6571 58.9322 30.4452 58.8636C30.2396 58.7889 29.7879 58.7484 29.0901 58.7422ZM29.0901 57.6019C30.1431 57.6144 30.8533 57.5521 31.221 57.415C31.5886 57.2717 31.8783 57.0194 32.0901 56.658C32.302 56.2904 32.4079 55.7951 32.4079 55.172C32.4079 54.281 32.1961 53.6642 31.7724 53.3215C31.3549 52.9788 30.6322 52.8075 29.6041 52.8075C29.4733 52.8075 29.3019 52.8106 29.0901 52.8168V57.6019Z" stroke="#FDE7D0" stroke-width="2" mask="url(#path-4-outside-1_44_22)"/>
<path d="M41.9258 60.9104L41.6828 61.5366C41.5084 61.979 41.4212 62.2905 41.4212 62.4712C41.4212 62.7765 41.524 62.9915 41.7296 63.1161C41.9352 63.2345 42.2716 63.2936 42.7389 63.2936V64.331H38.5519V63.2936C39.3495 63.2936 40.0193 62.6145 40.5613 61.2562L44.4586 51.4336H45.5521L49.5241 61.2469C49.9167 62.2189 50.2718 62.8045 50.5896 63.0039C50.9073 63.1971 51.2126 63.2936 51.5055 63.2936V64.331H45.2156V63.2936C45.7826 63.2936 46.1347 63.2407 46.2717 63.1348C46.4088 63.0226 46.4773 62.8824 46.4773 62.7142C46.4773 62.5647 46.4213 62.3684 46.3091 62.1254L46.1876 61.8357L45.8231 60.9104H41.9258ZM42.3277 59.8356H45.4025L43.8231 56.0505L42.3277 59.8356Z" stroke="#FDE7D0" stroke-width="2" mask="url(#path-4-outside-1_44_22)"/>
<path d="M56.9673 64.5927L52.6401 54.8729C52.2912 54.0879 52.0513 53.5863 51.9204 53.3682C51.7896 53.1439 51.6151 52.9757 51.3971 52.8635C51.179 52.7514 50.8301 52.6953 50.3503 52.6953V51.6579H57.0888V52.6953C56.1479 52.6953 55.6775 52.9258 55.6775 53.3869C55.6775 53.6424 55.8115 54.0629 56.0794 54.6486L58.6776 60.3964L61.1169 54.6393C61.2976 54.2156 61.3879 53.8573 61.3879 53.5645C61.3879 52.985 60.9175 52.6953 59.9767 52.6953V51.6579H64.4347V52.6953C63.9176 52.6953 63.5219 52.8324 63.2478 53.1065C62.9798 53.3807 62.553 54.2094 61.9674 55.5926L58.1168 64.5927H56.9673Z" stroke="#FDE7D0" stroke-width="2" mask="url(#path-4-outside-1_44_22)"/>
<path d="M70.6722 58.2749V61.4058C70.6722 62.0039 70.7065 62.3964 70.775 62.5833C70.8436 62.764 71.0274 62.9167 71.3264 63.0413C71.6255 63.1597 72.0803 63.2189 72.6909 63.2189C73.5196 63.2189 74.1271 63.1161 74.5134 62.9105C74.9059 62.7048 75.2549 62.3435 75.5602 61.8263C75.8717 61.3092 76.096 60.7578 76.2331 60.1721H77.2798L77.1957 64.331H65.6067V63.2936H65.8403C66.4696 63.2936 66.8777 63.1784 67.0647 62.9478C67.2578 62.7111 67.3544 62.3092 67.3544 61.7422V54.228C67.3544 53.6486 67.2547 53.2467 67.0553 53.0224C66.8622 52.7919 66.4572 52.6766 65.8403 52.6766H65.6067V51.6579H76.4013L76.5882 54.9383H75.5415C75.3545 54.3651 75.1458 53.9103 74.9153 53.5738C74.6848 53.2311 74.4511 53.0131 74.2143 52.9196C73.9838 52.8199 73.5913 52.7701 73.0367 52.7701H70.6722V57.144H71.8498C72.4106 57.144 72.7813 57.0381 72.962 56.8262C73.1489 56.6144 73.2548 56.1969 73.2797 55.5739H74.3358V59.873H73.2797C73.286 59.792 73.2891 59.7328 73.2891 59.6954C73.2891 59.3341 73.2112 59.007 73.0554 58.7141C72.9059 58.4213 72.5165 58.2749 71.8872 58.2749H70.6722Z" stroke="#FDE7D0" stroke-width="2" mask="url(#path-4-outside-1_44_22)"/>
<path d="M82.3491 55.2654V61.088C82.3491 62.0226 82.5173 62.6238 82.8538 62.8918C83.1965 63.1597 83.6326 63.2936 84.1622 63.2936V64.331H79.4051V63.2936C79.8101 63.2936 80.1621 63.1971 80.4612 63.0039C80.7603 62.8045 80.9503 62.5771 81.0313 62.3217C81.1123 62.06 81.1528 61.6519 81.1528 61.0973V54.6299C81.1528 53.3402 80.5484 52.6953 79.3397 52.6953V51.6579H83.6201L90.5642 59.4151V54.7701C90.5642 53.3869 89.9816 52.6953 88.8165 52.6953V51.6579H93.368V52.6953C93.0502 52.6953 92.7512 52.7825 92.4708 52.957C92.1966 53.1314 92.0097 53.3558 91.91 53.6299C91.8103 53.8978 91.7605 54.2903 91.7605 54.8075V64.5367H90.5642L82.3491 55.2654Z" stroke="#FDE7D0" stroke-width="2" mask="url(#path-4-outside-1_44_22)"/>
<path d="M55.1541 71.0702V70.0328H61.8552V71.0702H61.659C61.0297 71.0702 60.6184 71.1886 60.4253 71.4254C60.2384 71.6559 60.1449 72.0547 60.1449 72.6217V80.1172C60.1449 80.6966 60.2415 81.1016 60.4346 81.3321C60.634 81.5564 61.0421 81.6686 61.659 81.6686H61.8552V82.706H55.1541V81.6686C55.8271 81.6686 56.2725 81.5658 56.4906 81.3602C56.7149 81.1546 56.8271 80.7402 56.8271 80.1172V72.6217C56.8271 72.0173 56.7212 71.6092 56.5093 71.3974C56.3037 71.1793 55.852 71.0702 55.1541 71.0702Z" stroke="#FDE7D0" stroke-width="2" mask="url(#path-4-outside-1_44_22)"/>
<path d="M66.831 73.6404V79.4629C66.831 80.3975 66.9992 80.9988 67.3357 81.2667C67.6784 81.5346 68.1145 81.6686 68.6441 81.6686V82.706H63.887V81.6686C64.292 81.6686 64.6441 81.572 64.9431 81.3789C65.2422 81.1795 65.4322 80.9521 65.5132 80.6966C65.5942 80.4349 65.6347 80.0268 65.6347 79.4723V73.0049C65.6347 71.7151 65.0304 71.0702 63.8216 71.0702V70.0328H68.1021L75.0461 77.79V73.1451C75.0461 71.7619 74.4636 71.0702 73.2984 71.0702V70.0328H77.8499V71.0702C77.5322 71.0702 77.2331 71.1575 76.9527 71.3319C76.6786 71.5064 76.4916 71.7307 76.392 72.0048C76.2923 72.2728 76.2424 72.6653 76.2424 73.1824V82.9116H75.0461L66.831 73.6404Z" stroke="#FDE7D0" stroke-width="2" mask="url(#path-4-outside-1_44_22)"/>
<path d="M84.723 77.6965V80.1172C84.723 80.7028 84.8195 81.1078 85.0127 81.3321C85.2121 81.5564 85.6389 81.6686 86.2931 81.6686V82.706H79.6855V81.6686H79.8817C80.5173 81.6686 80.9285 81.5533 81.1154 81.3228C81.3086 81.086 81.4051 80.6841 81.4051 80.1172V72.6217C81.4051 72.0422 81.3054 71.6404 81.1061 71.416C80.9129 71.1855 80.5048 71.0702 79.8817 71.0702H79.6855V70.0328H86.4426V71.0702H86.237C85.6077 71.0702 85.1965 71.1886 85.0033 71.4254C84.8164 71.6559 84.723 72.0547 84.723 72.6217V76.1545L88.1529 72.9955C88.7511 72.4472 89.0501 71.9986 89.0501 71.6497C89.0501 71.2634 88.6732 71.0702 87.9193 71.0702V70.0328H93.5269V71.0702C93.016 71.0702 92.4801 71.2011 91.9194 71.4628C91.3586 71.7245 90.5642 72.332 89.5361 73.2852L88.3866 74.3507L91.8726 79.5284C92.4583 80.4007 92.9412 80.977 93.3213 81.2574C93.7076 81.5315 94.2216 81.6686 94.8633 81.6686V82.706H87.5828V81.6686C88.5299 81.6686 89.0034 81.4786 89.0034 81.0985C89.0034 80.9365 88.8103 80.5751 88.424 80.0144L86.0127 76.5003L84.723 77.6965Z" stroke="#FDE7D0" stroke-width="2" mask="url(#path-4-outside-1_44_22)"/>
<rect x="78.9238" y="79.634" width="2.07182" height="1.2632" fill="#FDE7D0"/>
<rect x="29.498" y="53.4419" width="2.15481" height="3.47297" fill="#FDE7D0"/>
</svg>
